<?xml version="1.0" encoding="UTF-8" standalone="no"?>
<svg
   height="125"
   width="125"
   version="1.1"
   id="svg23"
   sodipodi:docname="directory-icon.svg"
   inkscape:version="1.1 (c68e22c387, 2021-05-23)"
   xmlns:inkscape="http://www.inkscape.org/namespaces/inkscape"
   xmlns:sodipodi="http://sodipodi.sourceforge.net/DTD/sodipodi-0.dtd"
   xmlns="http://www.w3.org/2000/svg"
   xmlns:svg="http://www.w3.org/2000/svg">
  <defs
     id="defs27" />
  <sodipodi:namedview
     id="namedview25"
     pagecolor="#ffffff"
     bordercolor="#666666"
     borderopacity="1.0"
     inkscape:pageshadow="2"
     inkscape:pageopacity="0.0"
     inkscape:pagecheckerboard="0"
     showgrid="false"
     inkscape:zoom="4"
     inkscape:cx="99.125"
     inkscape:cy="62.125"
     inkscape:window-width="1360"
     inkscape:window-height="705"
     inkscape:window-x="-8"
     inkscape:window-y="-8"
     inkscape:window-maximized="1"
     inkscape:current-layer="svg23" />
  <path
     style="fill:#0085ba;fill-opacity:1;stroke:none;stroke-width:1px;stroke-linecap:butt;stroke-linejoin:miter;stroke-opacity:1"
     d="m 0,0 c 32.084333,-0.0823333 92.917667,0.0843333 125,0 -0.74901,16.50133 0,125 0,125 H 0 Z"
     id="path1293"
     sodipodi:nodetypes="ccccc" />
  <path
     style="color:#000000;fill:#ffffff;fill-opacity:1;stroke-width:3.18329;-inkscape-stroke:none"
     d="M 51.824795,18.646484 37.5,32.971279 39.750684,35.221963 54.075479,20.897168 Z"
     id="path915" />
  <path
     style="color:#000000;fill:#ffffff;fill-opacity:1;stroke-width:3.18329;-inkscape-stroke:none"
     d="m 51.824795,25.01306 -7.958219,7.958219 2.250684,2.250684 7.958219,-7.95822 z"
     id="path1009" />
  <path
     style="color:#000000;fill:#ffffff;fill-opacity:1;stroke-width:3.18329;-inkscape-stroke:none"
     d="M 39.750684,52.071004 37.5,54.32169 51.824795,68.646484 54.075479,66.395798 Z"
     id="path1011" />
  <path
     style="color:#000000;fill:#ffffff;fill-opacity:1;stroke-width:3.18329;-inkscape-stroke:none"
     d="m 46.11726,52.071004 -2.250684,2.250686 7.958219,7.958219 2.250684,-2.250686 z"
     id="path1013" />
  <path
     style="color:#000000;fill:#ffffff;fill-opacity:1;stroke-width:3.18329;-inkscape-stroke:none"
     d="M 73.175206,18.646484 70.92452,20.897168 85.249314,35.221963 87.5,32.971279 Z"
     id="path1015" />
  <path
     style="color:#000000;fill:#ffffff;fill-opacity:1;stroke-width:3.18329;-inkscape-stroke:none"
     d="m 73.175206,25.01306 -2.250686,2.250683 7.958219,7.95822 2.250686,-2.250684 z"
     id="path1019" />
  <path
     style="color:#000000;fill:#ffffff;fill-opacity:1;stroke-width:3.18329;-inkscape-stroke:none"
     d="M 85.249314,52.071004 70.92452,66.395798 73.175206,68.646484 87.5,54.32169 Z"
     id="path1021" />
  <path
     style="color:#000000;fill:#ffffff;fill-opacity:1;stroke-width:3.18329;-inkscape-stroke:none"
     d="m 78.882739,52.071004 -7.958219,7.958219 2.250686,2.250686 7.958219,-7.958219 z"
     id="path1023" />
  <path
     style="color:#000000;fill:#ffffff;fill-opacity:1;stroke-width:3.18329;-inkscape-stroke:none"
     d="m 56.133424,29.321689 v 3.183288 h 12.733151 v -3.183288 z"
     id="path1025" />
  <path
     style="color:#000000;fill:#ffffff;fill-opacity:1;stroke-width:3.18329;-inkscape-stroke:none"
     d="m 56.133424,54.787991 v 3.183287 h 12.733151 v -3.183287 z"
     id="path1027" />
  <path
     style="color:#000000;fill:#ffffff;fill-opacity:1;stroke-width:3.18329;-inkscape-stroke:none"
     d="m 62.5,35.029224 -1.125342,1.125343 -7.491918,7.491917 8.61726,8.617258 8.617258,-8.617258 z m 0,4.501368 4.115891,4.115892 L 62.5,47.762375 58.384108,43.646484 Z"
     id="path1064" />
  <text
     xml:space="preserve"
     style="font-style:normal;font-weight:normal;font-size:20px;line-height:1.25;font-family:sans-serif;fill:#000000;fill-opacity:1;stroke:none"
     x="19"
     y="104.25"
     id="text6103"><tspan
       sodipodi:role="line"
       id="tspan6101"
       x="19"
       y="104.25"
       style="font-size:20px;fill:#ffffff;fill-opacity:1">Mint FAQ</tspan></text>
</svg>
